# Blender 3.3.0
# www.blender.org
o Chair_Cube
v 0.036411 0.018521 -0.242921
v 0.000000 0.295735 -0.280211
v -0.000000 0.018375 -0.243171
v 0.036467 0.016323 -0.255213
v 0.036379 0.293526 -0.292156
v 0.036510 0.295713 -0.279928
v 0.143552 0.022939 -0.218219
v 0.156316 0.299089 -0.261045
v 0.083182 0.297435 -0.269785
v 0.077896 0.016925 -0.251849
v 0.086860 0.295130 -0.283184
v 0.073922 0.019025 -0.240114
v 0.152456 0.301141 -0.249571
v -0.036411 0.018521 -0.242921
v -0.036510 0.295713 -0.279928
v -0.036492 0.016337 -0.255134
v -0.143552 0.022939 -0.218219
v -0.156316 0.299089 -0.261045
v -0.147157 0.020846 -0.229920
v -0.036450 0.293555 -0.291994
v -0.086752 0.295129 -0.283189
v -0.073922 0.019025 -0.240114
v -0.077896 0.016924 -0.251849
v -0.083790 0.297484 -0.269520
v 0.147156 0.020846 -0.229920
v -0.152456 0.301141 -0.249571
v -0.000000 0.014982 -0.261872
v 0.174159 -0.002948 -0.198909
v -0.000000 -0.009433 -0.237189
v -0.000000 0.292451 -0.299024
v 0.096503 0.294859 -0.285207
v 0.092063 -0.007728 -0.227102
v 0.179260 -0.006345 -0.218101
v 0.097091 0.390371 -0.302149
v -0.000000 0.387846 -0.316146
v 0.192446 0.396889 -0.265811
v 0.091806 0.393614 -0.283400
v 0.187415 0.400096 -0.247035
v 0.209190 -0.110767 0.151242
v 0.215452 -0.110566 0.195534
v 0.166444 -0.110767 0.179986
v 0.166595 -0.110767 0.189497
v 0.209717 -0.110775 0.189924
v 0.166444 -0.162724 0.160614
v 0.222189 -0.360413 -0.254746
v 0.180664 0.022196 -0.222750
v 0.183245 0.304385 -0.231627
v 0.205480 -0.078466 -0.163080
v 0.178653 -0.162689 0.151106
v 0.197392 -0.162666 0.151107
v 0.175919 -0.162574 -0.206274
v 0.213535 -0.499381 -0.243325
v 0.178422 -0.110767 -0.170904
v 0.185174 -0.073856 -0.237524
v 0.184595 -0.221645 -0.244017
v 0.171867 -0.419418 -0.225567
v 0.184276 -0.335222 -0.260016
v 0.186505 -0.416764 -0.280347
v 0.168269 -0.233236 -0.182566
v 0.205204 -0.229948 -0.172250
v 0.222259 -0.236789 -0.235706
v 0.187425 0.066635 -0.246278
v 0.224927 0.064427 -0.236010
v 0.222715 -0.072976 -0.227279
v 0.182825 0.410492 -0.228981
v 0.196496 0.400767 -0.280300
v 0.168031 -0.050178 -0.174248
v 0.208441 0.073793 -0.174842
v 0.170745 0.066156 -0.184081
v 0.233972 0.400666 -0.270363
v 0.220094 0.410485 -0.218928
v 0.206890 -0.499556 0.152723
v 0.168827 -0.336166 -0.201649
v 0.206378 -0.354922 -0.195491
v 0.190359 -0.499457 -0.305861
v 0.197392 -0.294643 -0.186020
v 0.178612 -0.294714 -0.191065
v 0.227624 -0.499471 -0.295929
v 0.176322 -0.499434 -0.253377
v 0.178639 -0.313323 0.151349
v 0.178706 -0.294616 0.150850
v 0.166444 -0.162629 0.179771
v 0.166532 -0.214372 0.189546
v 0.197425 -0.313251 0.151349
v 0.197363 -0.294683 0.150851
v 0.206991 -0.499576 0.188009
v 0.169182 -0.499530 0.152665
v 0.168995 -0.499586 0.187969
v 0.197612 -0.110767 0.151103
v 0.209216 -0.225002 0.150574
v 0.197321 -0.313354 -0.189599
v 0.197321 -0.162730 -0.168746
v 0.199597 -0.110929 -0.165273
v 0.170132 -0.110767 -0.182711
v 0.167958 -0.110767 -0.173951
v 0.166647 -0.216643 0.150619
v 0.166708 -0.110767 0.151295
v 0.166444 -0.110767 0.160374
v 0.177870 -0.108346 -0.211501
v 0.169666 -0.162663 -0.182892
v 0.173091 -0.108206 -0.193658
v 0.173053 -0.081534 -0.193477
v 0.168047 -0.081259 -0.174063
v 0.215632 -0.081386 0.000003
v 0.178422 -0.110767 0.151103
v 0.215612 -0.110548 -0.000036
v -0.173001 -0.081415 -0.193285
v -0.177910 -0.108565 -0.211651
v 0.215491 -0.081658 0.195583
v -0.166444 -0.110767 0.179986
v 0.188282 0.301047 -0.250362
v 0.092028 0.020298 -0.232079
v -0.000000 -0.013116 -0.256762
v 0.096608 -0.011031 -0.246053
v 0.175394 0.025525 -0.203518
v 0.097095 0.016930 -0.250886
v -0.092064 -0.007728 -0.227102
v -0.179255 -0.006354 -0.218095
v -0.000001 0.391292 -0.296469
v -0.097094 0.016930 -0.250886
v -0.096608 -0.011032 -0.246053
v -0.174160 -0.002936 -0.198907
v -0.175394 0.025525 -0.203519
v -0.091769 0.393710 -0.283482
v -0.096687 0.294868 -0.285182
v -0.215671 -0.081479 0.000002
v -0.199598 -0.110929 -0.165272
v -0.186506 -0.416770 -0.280347
v -0.171868 -0.419430 -0.225572
v -0.175891 -0.162766 -0.206178
v -0.184595 -0.221662 -0.244018
v -0.227619 -0.499470 -0.295917
v -0.224227 -0.418870 -0.270850
v -0.209190 -0.110767 0.151243
v -0.197392 -0.162666 0.151106
v -0.205219 -0.229544 -0.172217
v -0.168266 -0.233506 -0.182587
v -0.213521 -0.499373 -0.243319
v -0.167999 -0.050251 -0.174269
v -0.185174 -0.073893 -0.237523
v -0.184276 -0.335226 -0.260017
v -0.222260 -0.236795 -0.235706
v -0.221937 -0.336506 -0.250186
v -0.187430 0.066600 -0.246276
v -0.183076 0.304303 -0.231426
v -0.222715 -0.072981 -0.227279
v -0.187415 0.400096 -0.247035
v -0.196506 0.400769 -0.280301
v -0.224927 0.064433 -0.236010
v -0.170748 0.066164 -0.184079
v -0.178678 -0.162664 -0.173737
v -0.197321 -0.162730 -0.168745
v -0.233971 0.400666 -0.270361
v -0.205480 -0.078441 -0.163079
v -0.220094 0.410485 -0.218928
v -0.206890 -0.499556 0.152724
v -0.182846 0.410499 -0.228969
v -0.206381 -0.354950 -0.195498
v -0.188283 0.300955 -0.250596
v -0.192447 0.396889 -0.265811
v -0.178612 -0.294714 -0.191065
v -0.168828 -0.336138 -0.201640
v -0.178678 -0.313288 -0.194582
v -0.197321 -0.313354 -0.189599
v -0.190360 -0.499459 -0.305878
v -0.176309 -0.499428 -0.253376
v -0.200531 -0.081449 -0.165058
v -0.197392 -0.294643 -0.186020
v -0.197425 -0.313251 0.151349
v -0.197363 -0.294683 0.150851
v -0.166595 -0.110767 0.189498
v -0.206991 -0.499575 0.188010
v -0.209218 -0.223219 0.150541
v -0.178706 -0.294616 0.150850
v -0.169182 -0.499530 0.152666
v -0.168995 -0.499586 0.187969
v -0.166444 -0.162726 0.179727
v -0.166532 -0.214369 0.189547
v -0.178639 -0.313323 0.151349
v -0.166444 -0.162608 0.160591
v -0.197612 -0.110767 0.151103
v -0.209717 -0.110775 0.189925
v -0.170133 -0.110767 -0.182710
v -0.167958 -0.110767 -0.173950
v -0.169698 -0.162706 -0.183006
v -0.178653 -0.162689 0.151107
v -0.178422 -0.110767 0.151103
v -0.166708 -0.110767 0.151295
v -0.166646 -0.218403 0.150654
v -0.166444 -0.110767 0.160374
v -0.173091 -0.108206 -0.193657
v -0.178422 -0.110767 -0.170904
v -0.168047 -0.081259 -0.174063
v -0.215504 -0.110546 0.195438
v -0.215612 -0.110548 -0.000037
v -0.215471 -0.081528 0.195497
v -0.092029 0.020298 -0.232079
v -0.208440 0.073778 -0.174840
v -0.097055 0.390253 -0.302193
v 0.178678 -0.313288 -0.194582
v 0.178678 -0.162664 -0.173737
v 0.200531 -0.081449 -0.165058
v -0.180664 0.022196 -0.222750
vn -0.0074 0.1324 0.9912
vn 0.6980 -0.0948 -0.7098
vn 0.9861 -0.0217 -0.1648
vn 0.2870 -0.8453 0.4506
vn -0.2977 0.9216 -0.2492
vn 0.2809 -0.1159 -0.9527
vn -0.1701 0.7988 -0.5770
vn 0.8985 0.0196 0.4385
vn 0.9064 -0.0755 -0.4157
vn 0.1913 -0.8333 0.5187
vn -0.0011 -0.1321 -0.9912
vn 0.0007 0.1116 0.9937
vn 0.0074 0.1324 0.9912
vn -1.0000 0.0005 0.0062
vn -1.0000 -0.0005 -0.0049
vn -0.4657 0.0802 0.8813
vn -0.9483 0.0054 0.3174
vn -0.9557 0.0015 0.2942
vn 0.9300 -0.0069 -0.3675
vn 0.3851 0.9223 0.0314
vn 0.1703 0.7991 -0.5766
vn 0.5068 -0.1870 0.8416
vn 0.9964 0.0109 0.0839
vn 0.8703 -0.0833 -0.4855
vn -0.3351 0.1109 0.9356
vn -0.9945 0.0225 -0.1021
vn -0.9641 0.0038 -0.2654
vn -0.3038 0.1109 0.9463
vn -0.2359 -0.2272 0.9448
vn -0.0023 -0.1318 -0.9913
vn 0.0031 -0.8809 0.4733
vn -0.3058 -0.1162 -0.9450
vn -0.3073 -0.1158 -0.9446
vn -0.1930 -0.8365 0.5129
vn -0.0000 0.5330 -0.8461
vn 0.0021 0.9795 -0.2016
vn -0.9665 -0.2294 0.1155
vn -0.1603 0.8177 0.5529
vn -0.1522 -0.5992 0.7860
vn -0.0000 -0.5864 0.8100
vn -0.0000 -0.7889 -0.6145
vn 0.1866 -0.7913 -0.5823
vn 0.0071 -0.9920 0.1257
vn -0.7867 -0.3753 -0.4902
vn -0.9696 -0.2201 0.1073
vn -0.1786 0.8326 0.5244
vn 0.2415 0.6224 -0.7445
vn -0.2611 0.7971 0.5444
vn -0.7867 -0.3822 -0.4848
vn 0.0106 -0.9892 0.1461
vn 0.7169 -0.0945 0.6908
vn 0.7171 0.6962 -0.0336
vn 0.7228 -0.6903 -0.0337
vn 0.8781 0.1205 -0.4630
vn 0.4433 -0.6640 0.6021
vn 0.7054 -0.4999 -0.5025
vn -0.7792 0.2652 -0.5679
vn -0.8577 0.0758 0.5085
vn 0.4657 -0.0077 0.8849
vn 0.1664 -0.4291 0.8878
vn -0.8522 -0.1991 0.4838
vn 0.4782 -0.2076 0.8534
vn -0.3090 -0.0715 0.9484
vn -0.1752 -0.7794 0.6016
vn -0.3648 -0.9048 0.2196
vn -0.5105 -0.0038 -0.8599
vn -0.5198 0.0772 -0.8508
vn -0.9678 0.0163 -0.2512
vn -0.5217 0.1440 -0.8409
vn -0.5191 0.2182 -0.8264
vn -0.4983 -0.0599 -0.8650
vn 0.7307 0.4862 -0.4793
vn 0.8690 -0.0588 -0.4912
vn -0.9663 0.0187 -0.2566
vn -0.6772 0.6639 0.3174
vn -0.3903 0.4888 -0.7802
vn 0.8766 0.0526 -0.4783
vn -0.8535 0.0409 0.5195
vn -0.8546 -0.0730 0.5141
vn -0.2658 -0.1754 0.9479
vn 0.4896 -0.1065 0.8654
vn 0.4928 0.0790 0.8665
vn 0.8776 -0.0115 -0.4792
vn 0.4298 0.6625 0.6135
vn 0.5745 -0.5816 -0.5760
vn -0.5768 -0.5811 0.5742
vn -0.5732 -0.5810 -0.5778
vn -0.9640 0.0140 -0.2657
vn -0.2193 -0.1777 0.9593
vn -0.8594 -0.1285 0.4948
vn -0.2571 -0.1836 0.9488
vn -0.7085 -0.6432 0.2903
vn -0.3824 -0.4832 -0.7876
vn -0.3035 -0.8937 0.3305
vn -0.9014 -0.3031 0.3093
vn -0.7072 -0.0071 0.7070
vn 0.2967 -0.2996 -0.9068
vn 0.5812 -0.5784 -0.5724
vn 0.3233 -0.8958 -0.3050
vn 0.7083 -0.0035 -0.7059
vn 0.5756 -0.5807 0.5757
vn -0.9004 -0.3025 -0.3126
vn -0.7057 -0.0019 -0.7085
vn -0.3829 0.2810 -0.8800
vn 0.6924 0.7215 -0.0004
vn -0.8044 0.5941 -0.0003
vn 0.7085 -0.0016 0.7058
vn 0.2967 -0.3077 -0.9040
vn 0.3757 0.2816 -0.8829
vn -0.2969 -0.3069 -0.9042
vn 0.5993 -0.8006 -0.0003
vn -0.2969 -0.2976 -0.9074
vn -0.7261 -0.6876 -0.0002
vn -0.3075 -0.8991 -0.3114
vn -0.5684 -0.5801 -0.5835
vn -0.8371 0.2157 -0.5028
vn -0.9310 -0.3606 0.0570
vn 0.8135 0.2557 -0.5223
vn -0.3736 0.9030 0.2119
vn -0.8046 0.2612 -0.5332
vn 0.0006 -0.6741 -0.7387
vn 0.8361 0.2142 -0.5051
vn 0.5803 -0.5709 0.5808
vn -0.5765 0.5772 0.5783
vn 0.5774 0.5762 0.5784
vn 0.8222 -0.2574 -0.5077
vn 0.1856 0.5499 -0.8143
vn 0.0007 0.8419 0.5396
vn -0.0012 0.9836 -0.1804
vn -0.0067 0.9870 -0.1607
vn -0.9436 0.3310 -0.0048
vn -0.0000 -0.8039 -0.5948
vn 0.1613 -0.7905 -0.5909
vn 0.1658 0.5347 -0.8286
vn -0.0015 0.9887 -0.1499
vn -0.0023 -0.9911 0.1330
vn 0.1523 -0.5990 0.7861
vn 0.7868 -0.3751 -0.4901
vn 0.0003 0.5368 -0.8437
vn 0.0014 0.9836 -0.1803
vn -0.1658 0.5347 -0.8286
vn -0.1614 -0.7903 -0.5911
vn 0.9666 -0.2289 0.1154
vn 0.1605 0.8178 0.5526
vn 0.9436 0.3311 -0.0047
vn 0.1775 0.8364 0.5187
vn -0.1860 -0.7913 -0.5825
vn -0.0073 -0.9916 0.1294
vn -0.7178 0.6955 -0.0338
vn -0.7170 -0.0945 0.6906
vn 0.0066 0.3804 0.9248
vn -0.3246 -0.8954 -0.3049
vn -0.0196 -0.9996 0.0209
vn -0.5815 -0.5700 0.5806
vn 0.7087 -0.6430 0.2903
vn 0.5135 0.2129 -0.8312
vn 0.8522 -0.1990 0.4838
vn -0.4431 -0.6640 0.6023
vn -0.4782 -0.2075 0.8534
vn 0.8576 0.0756 0.5087
vn 0.8539 0.0407 0.5189
vn 0.5103 -0.0040 -0.8600
vn 0.5183 0.1579 -0.8405
vn 0.8594 -0.1286 0.4949
vn 0.4978 -0.0601 -0.8652
vn 0.9696 -0.2189 0.1092
vn 0.7792 0.2651 -0.5679
vn -0.7307 0.4861 -0.4793
vn -0.8690 -0.0588 -0.4913
vn 0.9663 0.0207 -0.2566
vn 0.9639 0.0151 -0.2660
vn 0.3900 0.4889 -0.7803
vn -0.8754 0.0491 -0.4810
vn -0.8776 -0.0115 -0.4793
vn 0.6765 0.6646 0.3173
vn -0.4929 0.0790 0.8665
vn -0.4657 -0.0075 0.8849
vn 0.3090 -0.0715 0.9484
vn -0.1658 -0.4292 0.8879
vn -0.4902 -0.1056 0.8652
vn -0.4301 0.6624 0.6133
vn 0.5768 -0.5811 0.5742
vn -0.5745 -0.5816 -0.5759
vn 0.5732 -0.5810 -0.5778
vn 0.5193 0.0752 -0.8513
vn -0.8746 0.1028 -0.4737
vn -0.8687 0.1619 -0.4682
vn 0.7853 -0.3809 -0.4880
vn 0.2655 -0.1764 0.9478
vn 0.2569 -0.1837 0.9488
vn 0.2292 -0.1852 0.9556
vn -0.7063 -0.4983 -0.5028
vn 0.3820 -0.4832 -0.7878
vn -0.6924 0.7215 -0.0004
vn -0.2959 -0.3079 -0.9042
vn -0.3764 0.2814 -0.8827
vn 0.9026 -0.3031 0.3057
vn 0.5727 -0.5793 0.5800
vn 0.3033 -0.8951 0.3269
vn -0.7076 -0.0033 -0.7066
vn -0.7085 -0.0016 0.7058
vn 0.3825 0.2810 -0.8802
vn -0.5757 -0.5809 0.5755
vn 0.7071 -0.0071 0.7071
vn 0.7065 -0.0023 -0.7077
vn 0.2976 -0.3068 -0.9040
vn 0.7026 0.0005 -0.7116
vn 0.9999 -0.0009 -0.0155
vn -0.5993 -0.8006 -0.0003
vn 0.2979 -0.2977 -0.9070
vn -0.2959 -0.2994 -0.9071
vn 0.8044 0.5941 -0.0003
vn -0.5812 -0.5784 -0.5724
vn 0.8545 -0.0730 0.5144
vn 0.9304 -0.3617 0.0597
vn 0.7454 -0.6403 -0.1851
vn 0.3648 -0.9048 0.2196
vn 0.7119 -0.0032 -0.7023
vn -0.0002 -0.7063 -0.7079
vn -0.0000 -0.0042 -1.0000
vn 0.6343 0.7507 -0.1846
vn -0.4912 0.5914 -0.6396
vn -0.0000 -1.0000 -0.0000
vn 0.1751 -0.7793 0.6016
vn 0.3743 0.9025 0.2133
vn -0.0005 0.0135 -0.9999
vn -0.6527 -0.5638 0.5060
vn -0.0000 -0.0057 1.0000
vn 1.0000 -0.0049 -0.0001
vn -0.7223 -0.6908 -0.0338
vn -0.0057 -0.9863 0.1646
vn 0.0066 0.9869 -0.1609
vn -0.0018 0.9796 -0.2007
vn -0.2421 0.6234 -0.7435
vn 0.2605 0.7978 0.5437
vn -0.1859 0.5453 -0.8173
vn -0.0002 0.2806 0.9598
vn 0.0182 -0.9997 0.0186
vn -0.7044 -0.7097 0.0112
vn -0.0064 0.3800 0.9249
vn -0.2296 -0.1862 0.9553
vn -0.7560 -0.6545 -0.0001
vn -0.7119 -0.0032 -0.7023
vn -1.0000 -0.0049 -0.0001
vn -0.0000 -0.0041 1.0000
vn 0.2178 -0.1781 0.9596
vn 0.9996 -0.0001 -0.0291
vn 0.7261 -0.6876 -0.0002
vn 0.7560 -0.6545 -0.0001
vn 0.0024 -0.9916 0.1297
vn 0.0016 0.9887 -0.1499
s 1
f 1//1 2//1 3//1
f 4//2 5//3 6//4
f 12//5 11//6 10//7
f 7//8 8//9 13//10
f 16//11 5//3 4//2
f 2//12 14//13 3//13
f 14//14 15//15 16//14
f 17//16 18//17 19//18
f 21//19 22//20 23//21
f 24//22 17//16 22//20
f 1//23 6//4 2//12
f 1//23 4//2 6//4
f 7//8 25//24 8//9
f 12//25 9//26 11//27
f 8//9 25//24 11//6
f 25//24 10//7 11//6
f 12//25 7//28 9//26
f 7//8 13//10 9//29
f 16//30 20//30 5//30
f 2//12 15//31 14//13
f 16//14 15//15 20//15
f 21//19 24//22 22//20
f 23//21 19//32 21//19
f 19//33 18//33 21//33
f 24//22 26//34 17//16
f 17//16 26//34 18//17
f 27//35 4//36 10//7
f 28//37 112//38 32//39
f 112//38 29//40 32//39
f 30//41 31//42 5//43
f 28//37 32//39 33//44
f 47//45 37//46 9//29
f 36//47 37//46 38//48
f 31//42 111//49 8//50
f 93//51 104//52 106//53
f 45//54 52//55 78//56
f 46//57 69//58 47//45
f 48//59 93//51 92//60
f 56//61 52//55 74//62
f 201//63 53//64 95//65
f 54//66 55//67 51//68
f 56//61 57//69 58//70
f 62//71 33//44 46//57
f 62//71 70//72 63//73
f 38//74 65//75 66//76
f 54//66 61//77 55//67
f 67//78 33//44 54//66
f 59//79 77//80 60//81
f 68//82 65//75 69//58
f 48//59 69//58 67//78
f 64//83 68//82 48//59
f 64//83 62//71 63//73
f 69//58 28//37 67//78
f 66//76 71//84 70//72
f 72//85 88//86 87//87
f 55//67 45//54 57//69
f 57//69 45//54 58//70
f 111//49 36//88 66//76
f 76//89 74//62 60//81
f 73//90 200//91 77//80
f 78//56 79//92 75//93
f 42//94 82//95 83//96
f 50//97 89//98 39//99
f 90//100 86//101 72//85
f 82//95 44//102 96//103
f 81//104 76//105 77//106
f 83//96 87//87 88//86
f 43//107 90//100 39//99
f 84//108 76//105 85//109
f 80//110 91//111 84//108
f 49//112 92//60 50//97
f 80//110 77//106 200//113
f 93//51 50//97 92//60
f 61//77 74//62 45//54
f 73//90 55//67 57//69
f 49//112 96//103 97//114
f 44//102 98//115 97//114
f 43//107 88//86 86//101
f 99//116 67//78 54//66
f 58//70 78//56 75//93
f 95//65 100//117 59//79
f 64//83 60//81 61//77
f 89//98 93//51 106//53
f 107//118 103//119 102//120
f 51//121 108//122 99//116
f 104//52 40//123 106//53
f 104//52 196//124 109//125
f 100//117 130//126 51//121
f 79//92 58//70 75//93
f 34//127 119//128 37//46
f 46//57 25//129 7//130
f 68//82 70//72 71//84
f 7//130 112//38 115//131
f 113//132 32//39 29//40
f 27//35 114//133 113//132
f 116//134 33//44 114//133
f 102//120 103//119 67//78
f 4//36 1//135 12//5
f 13//10 47//45 9//29
f 31//42 11//136 6//4
f 116//134 25//129 46//57
f 113//132 117//137 118//138
f 9//29 119//128 2//12
f 34//127 111//49 31//42
f 2//12 6//4 9//29
f 35//139 31//42 30//41
f 19//140 23//21 120//141
f 121//142 27//35 113//132
f 122//143 197//144 123//145
f 124//146 119//128 35//139
f 29//40 197//144 117//137
f 113//132 118//138 121//142
f 125//147 35//139 30//41
f 24//22 119//128 124//146
f 30//41 20//148 125//147
f 126//149 196//124 104//52
f 127//150 126//149 167//151
f 134//152 182//153 194//154
f 166//155 128//156 129//157
f 138//158 129//157 158//159
f 122//143 150//160 139//161
f 140//162 139//161 108//122
f 129//157 141//163 162//164
f 144//165 145//166 203//167
f 153//168 144//165 149//169
f 147//170 160//171 148//172
f 140//162 142//173 146//174
f 118//138 139//161 140//162
f 157//175 198//176 150//160
f 123//145 203//167 150//160
f 198//176 146//174 154//177
f 151//178 152//179 136//180
f 144//165 118//138 140//162
f 150//160 154//177 139//161
f 155//181 148//172 153//168
f 176//182 156//183 175//184
f 131//185 143//186 142//173
f 158//159 143//186 133//187
f 146//174 144//165 140//162
f 159//188 148//172 160//171
f 161//189 163//190 162//164
f 163//190 164//191 158//159
f 166//155 132//192 165//193
f 139//161 154//177 167//151
f 141//163 133//187 143//186
f 168//194 169//195 170//196
f 177//197 110//198 171//199
f 173//200 182//201 134//152
f 170//196 173//200 174//202
f 172//203 173//200 156//183
f 177//197 178//204 189//205
f 174//202 168//194 170//196
f 175//184 178//204 176//182
f 179//206 175//184 169//195
f 188//207 180//208 189//205
f 164//209 179//206 169//195
f 152//179 186//210 135//211
f 179//206 161//212 174//202
f 127//150 135//211 181//213
f 158//159 142//173 143//186
f 162//164 131//185 137//214
f 185//215 183//216 184//217
f 186//210 187//218 188//207
f 174//202 189//205 179//206
f 176//182 182//201 172//203
f 138//158 133//187 132//192
f 128//156 132//192 133//187
f 98//115 180//219 190//220
f 99//116 191//221 101//222
f 188//223 187//223 192//224
f 126//149 104//52 193//225
f 102//120 191//226 107//118
f 185//215 94//227 183//228
f 136//180 146//174 142//173
f 187//218 186//210 192//229
f 186//210 189//205 173//200
f 194//154 126//149 195//230
f 107//118 191//221 108//122
f 125//147 18//231 159//188
f 40//123 196//124 194//154
f 17//232 19//140 203//167
f 198//176 153//168 149//169
f 159//188 145//166 144//165
f 123//145 197//144 17//232
f 27//35 23//21 16//233
f 118//138 120//141 121//142
f 193//225 107//118 139//161
f 124//146 160//234 147//235
f 123//145 17//232 203//167
f 159//188 199//236 125//147
f 145//166 124//146 147//235
f 3//237 22//20 197//144
f 3//237 12//5 1//135
f 28//37 115//131 112//38
f 112//38 3//237 29//40
f 47//45 38//48 37//46
f 36//47 34//127 37//46
f 8//50 11//136 31//42
f 106//53 40//123 39//99
f 39//99 40//123 43//238
f 40//123 110//198 42//94
f 110//198 41//239 42//94
f 93//51 202//240 104//52
f 42//94 43//238 40//123
f 82//95 177//197 44//102
f 45//54 74//62 52//55
f 92//60 60//81 48//59
f 50//97 90//100 96//103
f 96//103 49//112 50//97
f 51//68 55//67 59//79
f 59//79 100//117 51//68
f 56//61 79//92 52//55
f 59//79 201//63 95//65
f 51//68 99//116 54//66
f 56//61 73//90 57//69
f 62//71 54//66 33//44
f 62//71 66//76 70//72
f 202//240 93//51 48//59
f 36//88 38//74 66//76
f 54//66 64//83 61//77
f 67//78 28//37 33//44
f 77//80 76//89 60//81
f 68//82 71//84 65//75
f 48//59 68//82 69//58
f 64//83 63//73 68//82
f 92//60 201//63 60//81
f 201//63 59//79 60//81
f 64//83 54//66 62//71
f 69//58 115//131 28//37
f 66//76 65//75 71//84
f 72//85 86//101 88//86
f 47//45 69//58 65//75
f 38//74 47//45 65//75
f 55//67 61//77 45//54
f 73//90 56//61 74//62
f 66//76 62//71 111//49
f 76//89 91//241 74//62
f 91//241 200//91 74//62
f 200//91 73//90 74//62
f 59//79 73//90 77//80
f 78//56 52//55 79//92
f 67//78 103//119 202//240
f 202//240 48//59 67//78
f 80//110 87//87 96//103
f 96//103 81//104 80//110
f 42//94 41//239 82//95
f 85//109 90//100 84//108
f 90//100 72//85 84//108
f 81//104 96//103 90//100
f 90//100 85//109 81//104
f 39//99 90//100 50//97
f 90//100 43//107 86//101
f 83//96 82//95 96//103
f 81//104 85//109 76//105
f 83//96 96//103 87//87
f 84//108 91//111 76//105
f 80//110 200//113 91//111
f 49//112 201//242 92//60
f 80//110 81//104 77//106
f 93//51 89//98 50//97
f 61//77 60//81 74//62
f 73//90 59//79 55//67
f 43//107 42//94 83//96
f 188//223 94//227 95//65
f 105//243 49//112 97//114
f 96//103 44//102 97//114
f 43//107 83//96 88//86
f 58//70 45//54 78//56
f 95//65 94//227 100//117
f 104//52 202//240 103//119
f 98//115 188//223 97//114
f 188//223 53//64 97//114
f 53//64 105//223 97//114
f 89//98 106//53 39//99
f 67//78 99//116 102//120
f 102//120 99//116 101//222
f 64//83 48//59 60//81
f 105//243 53//244 49//112
f 84//108 72//85 87//87
f 87//87 80//110 84//108
f 53//244 201//242 49//112
f 104//52 103//119 107//118
f 47//45 13//10 8//50
f 104//52 109//125 40//123
f 82//95 41//245 110//198
f 100//117 185//215 130//126
f 79//92 56//61 58//70
f 53//64 188//223 95//65
f 34//127 35//139 119//128
f 4//36 12//5 10//7
f 68//82 63//73 70//72
f 111//49 62//71 47//45
f 12//5 112//38 7//130
f 113//132 33//44 32//39
f 27//35 116//134 114//133
f 116//134 46//57 33//44
f 62//71 46//57 47//45
f 115//131 69//58 46//57
f 6//4 5//43 31//42
f 6//4 11//136 9//29
f 116//134 10//7 25//129
f 113//132 29//40 117//137
f 8//50 111//49 47//45
f 46//57 7//130 115//131
f 9//29 37//46 119//128
f 34//127 36//47 111//49
f 35//139 34//127 31//42
f 203//167 19//140 120//141
f 121//142 120//141 27//35
f 122//143 117//137 197//144
f 29//40 3//237 197//144
f 125//147 199//236 35//139
f 24//22 2//12 119//128
f 30//41 5//43 20//148
f 18//231 26//34 145//166
f 127//150 195//230 126//149
f 194//154 195//230 134//152
f 166//155 165//193 128//156
f 131//185 140//162 130//126
f 130//126 140//162 108//122
f 203//167 145//166 150//160
f 135//211 173//200 134//152
f 134//152 181//213 135//211
f 138//158 166//155 129//157
f 122//143 123//145 150//160
f 137//214 131//185 130//126
f 130//126 185//215 137//214
f 129//157 128//156 141//163
f 153//168 148//172 144//165
f 136//180 152//179 154//177
f 127//150 154//177 152//179
f 157//175 147//170 148//172
f 140//162 131//185 142//173
f 118//138 122//143 139//161
f 136//180 168//246 137//214
f 168//246 161//189 137//214
f 157//175 155//181 198//176
f 198//176 149//169 146//174
f 137//214 151//178 136//180
f 144//165 203//167 118//138
f 150//160 198//176 154//177
f 155//181 157//175 148//172
f 176//182 172//203 156//183
f 157//175 150//160 145//166
f 145//166 147//170 157//175
f 131//185 141//163 143//186
f 146//174 149//169 144//165
f 144//165 148//172 159//188
f 162//164 137//214 161//189
f 158//159 164//191 168//246
f 158//159 168//246 136//180
f 162//164 163//190 158//159
f 158//159 129//157 162//164
f 166//155 138//158 132//192
f 167//151 193//225 139//161
f 141//163 128//156 133//187
f 168//194 164//209 169//195
f 178//204 177//197 171//199
f 173//200 189//205 174//202
f 156//183 173//200 169//195
f 173//200 170//196 169//195
f 172//203 182//201 173//200
f 189//205 180//208 177//197
f 174//202 161//212 168//194
f 175//184 189//205 178//204
f 175//184 156//183 169//195
f 188//207 190//247 180//208
f 164//209 163//248 179//206
f 152//179 151//249 186//210
f 179//206 163//248 161//212
f 127//150 152//179 135//211
f 158//159 136//180 142//173
f 162//164 141//163 131//185
f 178//204 171//199 182//201
f 127//150 167//151 154//177
f 137//214 185//215 184//217
f 189//205 186//210 188//207
f 177//197 82//95 110//198
f 189//205 175//184 179//206
f 176//182 178//204 182//201
f 138//158 158//159 133//187
f 128//156 165//193 132//192
f 98//115 44//102 180//219
f 192//224 151//178 184//217
f 151//178 137//214 184//217
f 99//116 108//122 191//221
f 98//115 190//223 188//223
f 167//151 126//149 193//225
f 102//120 101//222 191//226
f 134//152 195//230 181//213
f 185//215 100//117 94//227
f 136//180 154//177 146//174
f 173//200 135//211 186//210
f 181//213 195//230 127//150
f 186//210 151//249 192//229
f 108//122 51//121 130//126
f 177//197 180//219 44//102
f 193//225 104//52 107//118
f 194//154 196//124 126//149
f 171//199 40//123 194//154
f 182//153 171//199 194//154
f 139//161 107//118 108//122
f 183//216 94//227 184//217
f 94//227 188//223 184//217
f 110//198 40//123 171//199
f 184//217 188//223 192//224
f 24//22 145//166 26//34
f 125//147 21//250 18//231
f 40//123 109//125 196//124
f 198//176 155//181 153//168
f 197//144 22//20 17//232
f 16//233 4//36 27//35
f 118//138 203//167 120//141
f 21//250 125//147 15//31
f 125//147 20//148 15//31
f 22//20 16//233 23//21
f 15//31 24//22 21//250
f 22//20 14//251 16//233
f 199//236 124//146 35//139
f 117//137 122//143 118//138
f 145//166 159//188 18//231
f 2//12 24//22 15//31
f 159//188 160//234 199//236
f 145//166 24//22 124//146
f 124//146 199//236 160//234
f 3//237 14//251 22//20
f 113//132 114//133 33//44
f 3//237 112//38 12//5
f 116//134 27//35 10//7
f 23//21 27//35 120//141
